<?xml version="1.0" encoding="UTF-8" standalone="no"?>
<!DOCTYPE svg PUBLIC "-//W3C//DTD SVG 1.1//EN"
 "http://www.w3.org/Graphics/SVG/1.1/DTD/svg11.dtd">
<!-- Generated by graphviz version 2.50.0 (20211204.2007)
 -->
<!-- Pages: 1 -->
<svg width="1623pt" height="995pt"
 viewBox="0.00 0.00 1623.00 995.00" xmlns="http://www.w3.org/2000/svg" xmlns:xlink="http://www.w3.org/1999/xlink">
<g id="graph0" class="graph" transform="scale(1 1) rotate(0) translate(4 991)">
<polygon fill="white" stroke="transparent" points="-4,4 -4,-991 1619,-991 1619,4 -4,4"/>
<!-- fake -->
<g id="node1" class="node">
<title>fake</title>
</g>
<!-- S -->
<g id="node25" class="node">
<title>S</title>
<ellipse fill="none" stroke="black" cx="76" cy="-896" rx="27" ry="18"/>
<text text-anchor="middle" x="76" y="-892.3" font-family="Times New Roman,serif" font-size="14.00">S</text>
</g>
<!-- fake&#45;&gt;S -->
<g id="edge1" class="edge">
<title>fake&#45;&gt;S</title>
<path fill="none" stroke="black" stroke-width="2" d="M76,-950.81C76,-942.79 76,-933.05 76,-924.07"/>
<polygon fill="black" stroke="black" stroke-width="2" points="79.5,-924.03 76,-914.03 72.5,-924.03 79.5,-924.03"/>
</g>
<!-- 13 -->
<g id="node2" class="node">
<title>13</title>
<ellipse fill="none" stroke="black" cx="148" cy="-969" rx="27" ry="18"/>
<text text-anchor="middle" x="148" y="-965.3" font-family="Times New Roman,serif" font-size="14.00">13</text>
</g>
<!-- 10 -->
<g id="node3" class="node">
<title>10</title>
<ellipse fill="none" stroke="black" cx="220" cy="-969" rx="27" ry="18"/>
<text text-anchor="middle" x="220" y="-965.3" font-family="Times New Roman,serif" font-size="14.00">10</text>
</g>
<!-- 11 -->
<g id="node4" class="node">
<title>11</title>
<ellipse fill="none" stroke="black" cx="292" cy="-969" rx="27" ry="18"/>
<text text-anchor="middle" x="292" y="-965.3" font-family="Times New Roman,serif" font-size="14.00">11</text>
</g>
<!-- 4 -->
<g id="node5" class="node">
<title>4</title>
<ellipse fill="none" stroke="black" cx="98" cy="-548" rx="27" ry="18"/>
<text text-anchor="middle" x="98" y="-544.3" font-family="Times New Roman,serif" font-size="14.00">4</text>
</g>
<!-- E -->
<g id="node13" class="node">
<title>E</title>
<ellipse fill="none" stroke="black" cx="98" cy="-22" rx="18" ry="18"/>
<ellipse fill="none" stroke="black" cx="98" cy="-22" rx="22" ry="22"/>
<text text-anchor="middle" x="98" y="-18.3" font-family="Times New Roman,serif" font-size="14.00">E</text>
</g>
<!-- 4&#45;&gt;E -->
<g id="edge6" class="edge">
<title>4&#45;&gt;E</title>
<path fill="none" stroke="black" d="M92.94,-530.24C88.25,-513.22 82,-486.03 82,-462 82,-462 82,-462 82,-112 82,-92.24 85.87,-70.39 89.8,-53.29"/>
<polygon fill="black" stroke="black" points="93.26,-53.86 92.22,-43.32 86.46,-52.21 93.26,-53.86"/>
<text text-anchor="middle" x="85.5" y="-283.3" font-family="Times New Roman,serif" font-size="14.00">1</text>
</g>
<!-- 26 -->
<g id="node31" class="node">
<title>26</title>
<ellipse fill="none" stroke="black" cx="137" cy="-461" rx="27" ry="18"/>
<text text-anchor="middle" x="137" y="-457.3" font-family="Times New Roman,serif" font-size="14.00">26</text>
</g>
<!-- 4&#45;&gt;26 -->
<g id="edge2" class="edge">
<title>4&#45;&gt;26</title>
<path fill="none" stroke="black" d="M105.52,-530.61C111.13,-518.38 118.9,-501.44 125.32,-487.46"/>
<polygon fill="black" stroke="black" points="128.51,-488.89 129.5,-478.34 122.15,-485.97 128.51,-488.89"/>
<text text-anchor="middle" x="122.5" y="-500.8" font-family="Times New Roman,serif" font-size="14.00">0</text>
</g>
<!-- 19 -->
<g id="node6" class="node">
<title>19</title>
<ellipse fill="none" stroke="black" cx="364" cy="-969" rx="27" ry="18"/>
<text text-anchor="middle" x="364" y="-965.3" font-family="Times New Roman,serif" font-size="14.00">19</text>
</g>
<!-- 25 -->
<g id="node7" class="node">
<title>25</title>
<ellipse fill="none" stroke="black" cx="436" cy="-969" rx="27" ry="18"/>
<text text-anchor="middle" x="436" y="-965.3" font-family="Times New Roman,serif" font-size="14.00">25</text>
</g>
<!-- 27 -->
<g id="node8" class="node">
<title>27</title>
<ellipse fill="none" stroke="black" cx="137" cy="-374" rx="27" ry="18"/>
<text text-anchor="middle" x="137" y="-370.3" font-family="Times New Roman,serif" font-size="14.00">27</text>
</g>
<!-- 28 -->
<g id="node11" class="node">
<title>28</title>
<ellipse fill="none" stroke="black" cx="137" cy="-287" rx="27" ry="18"/>
<text text-anchor="middle" x="137" y="-283.3" font-family="Times New Roman,serif" font-size="14.00">28</text>
</g>
<!-- 27&#45;&gt;28 -->
<g id="edge5" class="edge">
<title>27&#45;&gt;28</title>
<path fill="none" stroke="black" d="M137,-355.8C137,-344.16 137,-328.55 137,-315.24"/>
<polygon fill="black" stroke="black" points="140.5,-315.18 137,-305.18 133.5,-315.18 140.5,-315.18"/>
<text text-anchor="middle" x="140.5" y="-326.8" font-family="Times New Roman,serif" font-size="14.00">1</text>
</g>
<!-- 30 -->
<g id="node9" class="node">
<title>30</title>
<ellipse fill="none" stroke="black" cx="137" cy="-113" rx="27" ry="18"/>
<text text-anchor="middle" x="137" y="-109.3" font-family="Times New Roman,serif" font-size="14.00">30</text>
</g>
<!-- 30&#45;&gt;E -->
<g id="edge14" class="edge">
<title>30&#45;&gt;E</title>
<path fill="none" stroke="black" d="M129.66,-95.26C124.32,-83.07 116.95,-66.25 110.67,-51.9"/>
<polygon fill="black" stroke="black" points="113.74,-50.21 106.52,-42.45 107.33,-53.02 113.74,-50.21"/>
<text text-anchor="middle" x="123.5" y="-65.8" font-family="Times New Roman,serif" font-size="14.00">1</text>
</g>
<!-- 6 -->
<g id="node10" class="node">
<title>6</title>
<ellipse fill="none" stroke="black" cx="508" cy="-969" rx="27" ry="18"/>
<text text-anchor="middle" x="508" y="-965.3" font-family="Times New Roman,serif" font-size="14.00">6</text>
</g>
<!-- 29 -->
<g id="node32" class="node">
<title>29</title>
<ellipse fill="none" stroke="black" cx="137" cy="-200" rx="27" ry="18"/>
<text text-anchor="middle" x="137" y="-196.3" font-family="Times New Roman,serif" font-size="14.00">29</text>
</g>
<!-- 28&#45;&gt;29 -->
<g id="edge16" class="edge">
<title>28&#45;&gt;29</title>
<path fill="none" stroke="black" d="M137,-268.8C137,-257.16 137,-241.55 137,-228.24"/>
<polygon fill="black" stroke="black" points="140.5,-228.18 137,-218.18 133.5,-228.18 140.5,-228.18"/>
<text text-anchor="middle" x="140.5" y="-239.8" font-family="Times New Roman,serif" font-size="14.00">1</text>
</g>
<!-- 24 -->
<g id="node12" class="node">
<title>24</title>
<ellipse fill="none" stroke="black" cx="580" cy="-969" rx="27" ry="18"/>
<text text-anchor="middle" x="580" y="-965.3" font-family="Times New Roman,serif" font-size="14.00">24</text>
</g>
<!-- 5 -->
<g id="node14" class="node">
<title>5</title>
<ellipse fill="none" stroke="black" cx="652" cy="-969" rx="27" ry="18"/>
<text text-anchor="middle" x="652" y="-965.3" font-family="Times New Roman,serif" font-size="14.00">5</text>
</g>
<!-- 22 -->
<g id="node15" class="node">
<title>22</title>
<ellipse fill="none" stroke="black" cx="724" cy="-969" rx="27" ry="18"/>
<text text-anchor="middle" x="724" y="-965.3" font-family="Times New Roman,serif" font-size="14.00">22</text>
</g>
<!-- 23 -->
<g id="node16" class="node">
<title>23</title>
<ellipse fill="none" stroke="black" cx="796" cy="-969" rx="27" ry="18"/>
<text text-anchor="middle" x="796" y="-965.3" font-family="Times New Roman,serif" font-size="14.00">23</text>
</g>
<!-- 12 -->
<g id="node17" class="node">
<title>12</title>
<ellipse fill="none" stroke="black" cx="868" cy="-969" rx="27" ry="18"/>
<text text-anchor="middle" x="868" y="-965.3" font-family="Times New Roman,serif" font-size="14.00">12</text>
</g>
<!-- 20 -->
<g id="node18" class="node">
<title>20</title>
<ellipse fill="none" stroke="black" cx="940" cy="-969" rx="27" ry="18"/>
<text text-anchor="middle" x="940" y="-965.3" font-family="Times New Roman,serif" font-size="14.00">20</text>
</g>
<!-- 17 -->
<g id="node19" class="node">
<title>17</title>
<ellipse fill="none" stroke="black" cx="1012" cy="-969" rx="27" ry="18"/>
<text text-anchor="middle" x="1012" y="-965.3" font-family="Times New Roman,serif" font-size="14.00">17</text>
</g>
<!-- 18 -->
<g id="node20" class="node">
<title>18</title>
<ellipse fill="none" stroke="black" cx="1084" cy="-969" rx="27" ry="18"/>
<text text-anchor="middle" x="1084" y="-965.3" font-family="Times New Roman,serif" font-size="14.00">18</text>
</g>
<!-- 7 -->
<g id="node21" class="node">
<title>7</title>
<ellipse fill="none" stroke="black" cx="1156" cy="-969" rx="27" ry="18"/>
<text text-anchor="middle" x="1156" y="-965.3" font-family="Times New Roman,serif" font-size="14.00">7</text>
</g>
<!-- 21 -->
<g id="node22" class="node">
<title>21</title>
<ellipse fill="none" stroke="black" cx="1228" cy="-969" rx="27" ry="18"/>
<text text-anchor="middle" x="1228" y="-965.3" font-family="Times New Roman,serif" font-size="14.00">21</text>
</g>
<!-- 9 -->
<g id="node23" class="node">
<title>9</title>
<ellipse fill="none" stroke="black" cx="1300" cy="-969" rx="27" ry="18"/>
<text text-anchor="middle" x="1300" y="-965.3" font-family="Times New Roman,serif" font-size="14.00">9</text>
</g>
<!-- 16 -->
<g id="node24" class="node">
<title>16</title>
<ellipse fill="none" stroke="black" cx="1372" cy="-969" rx="27" ry="18"/>
<text text-anchor="middle" x="1372" y="-965.3" font-family="Times New Roman,serif" font-size="14.00">16</text>
</g>
<!-- S&#45;&gt;S -->
<g id="edge9" class="edge">
<title>S&#45;&gt;S</title>
<path fill="none" stroke="black" d="M101.44,-902.69C112.03,-903.15 121,-900.92 121,-896 121,-892.77 117.14,-890.7 111.49,-889.79"/>
<polygon fill="black" stroke="black" points="111.6,-886.29 101.44,-889.31 111.27,-893.28 111.6,-886.29"/>
<text text-anchor="middle" x="124.5" y="-892.3" font-family="Times New Roman,serif" font-size="14.00">0</text>
</g>
<!-- 1 -->
<g id="node28" class="node">
<title>1</title>
<ellipse fill="none" stroke="black" cx="27" cy="-809" rx="27" ry="18"/>
<text text-anchor="middle" x="27" y="-805.3" font-family="Times New Roman,serif" font-size="14.00">1</text>
</g>
<!-- S&#45;&gt;1 -->
<g id="edge13" class="edge">
<title>S&#45;&gt;1</title>
<path fill="none" stroke="black" d="M57.66,-882.64C50.14,-876.66 42.05,-868.85 37,-860 33.08,-853.13 30.68,-844.96 29.21,-837.24"/>
<polygon fill="black" stroke="black" points="32.65,-836.54 27.74,-827.15 25.72,-837.55 32.65,-836.54"/>
<text text-anchor="middle" x="40.5" y="-848.8" font-family="Times New Roman,serif" font-size="14.00">1</text>
</g>
<!-- 3 -->
<g id="node26" class="node">
<title>3</title>
<ellipse fill="none" stroke="black" cx="98" cy="-635" rx="27" ry="18"/>
<text text-anchor="middle" x="98" y="-631.3" font-family="Times New Roman,serif" font-size="14.00">3</text>
</g>
<!-- 3&#45;&gt;4 -->
<g id="edge15" class="edge">
<title>3&#45;&gt;4</title>
<path fill="none" stroke="black" d="M98,-616.8C98,-605.16 98,-589.55 98,-576.24"/>
<polygon fill="black" stroke="black" points="101.5,-576.18 98,-566.18 94.5,-576.18 101.5,-576.18"/>
<text text-anchor="middle" x="101.5" y="-587.8" font-family="Times New Roman,serif" font-size="14.00">1</text>
</g>
<!-- 3&#45;&gt;S -->
<g id="edge10" class="edge">
<title>3&#45;&gt;S</title>
<path fill="none" stroke="black" d="M100.56,-653C102.49,-666.72 104.98,-686.56 106,-704 110.08,-773.67 104.56,-792.2 88,-860 87.3,-862.87 86.46,-865.83 85.56,-868.77"/>
<polygon fill="black" stroke="black" points="82.18,-867.86 82.36,-878.45 88.83,-870.05 82.18,-867.86"/>
<text text-anchor="middle" x="109.5" y="-761.8" font-family="Times New Roman,serif" font-size="14.00">0</text>
</g>
<!-- 15 -->
<g id="node27" class="node">
<title>15</title>
<ellipse fill="none" stroke="black" cx="1444" cy="-969" rx="27" ry="18"/>
<text text-anchor="middle" x="1444" y="-965.3" font-family="Times New Roman,serif" font-size="14.00">15</text>
</g>
<!-- 1&#45;&gt;S -->
<g id="edge8" class="edge">
<title>1&#45;&gt;S</title>
<path fill="none" stroke="black" d="M36.34,-826.21C43.52,-838.65 53.55,-856.05 61.73,-870.24"/>
<polygon fill="black" stroke="black" points="58.76,-872.1 66.78,-879.01 64.82,-868.6 58.76,-872.1"/>
<text text-anchor="middle" x="57.5" y="-848.8" font-family="Times New Roman,serif" font-size="14.00">0</text>
</g>
<!-- 2 -->
<g id="node30" class="node">
<title>2</title>
<ellipse fill="none" stroke="black" cx="70" cy="-722" rx="27" ry="18"/>
<text text-anchor="middle" x="70" y="-718.3" font-family="Times New Roman,serif" font-size="14.00">2</text>
</g>
<!-- 1&#45;&gt;2 -->
<g id="edge11" class="edge">
<title>1&#45;&gt;2</title>
<path fill="none" stroke="black" d="M35.29,-791.61C41.48,-779.38 50.05,-762.44 57.12,-748.46"/>
<polygon fill="black" stroke="black" points="60.34,-749.84 61.73,-739.34 54.1,-746.68 60.34,-749.84"/>
<text text-anchor="middle" x="54.5" y="-761.8" font-family="Times New Roman,serif" font-size="14.00">1</text>
</g>
<!-- 14 -->
<g id="node29" class="node">
<title>14</title>
<ellipse fill="none" stroke="black" cx="1516" cy="-969" rx="27" ry="18"/>
<text text-anchor="middle" x="1516" y="-965.3" font-family="Times New Roman,serif" font-size="14.00">14</text>
</g>
<!-- 2&#45;&gt;S -->
<g id="edge3" class="edge">
<title>2&#45;&gt;S</title>
<path fill="none" stroke="black" d="M70.59,-740.05C71.64,-769.88 73.79,-831.76 75.05,-867.64"/>
<polygon fill="black" stroke="black" points="71.56,-868.01 75.4,-877.88 78.55,-867.76 71.56,-868.01"/>
<text text-anchor="middle" x="76.5" y="-805.3" font-family="Times New Roman,serif" font-size="14.00">0</text>
</g>
<!-- 2&#45;&gt;3 -->
<g id="edge12" class="edge">
<title>2&#45;&gt;3</title>
<path fill="none" stroke="black" d="M75.53,-704.21C79.44,-692.33 84.77,-676.17 89.25,-662.56"/>
<polygon fill="black" stroke="black" points="92.68,-663.35 92.48,-652.76 86.03,-661.16 92.68,-663.35"/>
<text text-anchor="middle" x="88.5" y="-674.8" font-family="Times New Roman,serif" font-size="14.00">1</text>
</g>
<!-- 26&#45;&gt;27 -->
<g id="edge7" class="edge">
<title>26&#45;&gt;27</title>
<path fill="none" stroke="black" d="M137,-442.8C137,-431.16 137,-415.55 137,-402.24"/>
<polygon fill="black" stroke="black" points="140.5,-402.18 137,-392.18 133.5,-402.18 140.5,-402.18"/>
<text text-anchor="middle" x="140.5" y="-413.8" font-family="Times New Roman,serif" font-size="14.00">1</text>
</g>
<!-- 29&#45;&gt;30 -->
<g id="edge4" class="edge">
<title>29&#45;&gt;30</title>
<path fill="none" stroke="black" d="M137,-181.8C137,-170.16 137,-154.55 137,-141.24"/>
<polygon fill="black" stroke="black" points="140.5,-141.18 137,-131.18 133.5,-141.18 140.5,-141.18"/>
<text text-anchor="middle" x="140.5" y="-152.8" font-family="Times New Roman,serif" font-size="14.00">1</text>
</g>
<!-- 8 -->
<g id="node33" class="node">
<title>8</title>
<ellipse fill="none" stroke="black" cx="1588" cy="-969" rx="27" ry="18"/>
<text text-anchor="middle" x="1588" y="-965.3" font-family="Times New Roman,serif" font-size="14.00">8</text>
</g>
</g>
</svg>
