<?xml version="1.0" encoding="UTF-8" standalone="no"?>
<!DOCTYPE svg PUBLIC "-//W3C//DTD SVG 1.1//EN"
 "http://www.w3.org/Graphics/SVG/1.1/DTD/svg11.dtd">
<!-- Generated by graphviz version 2.50.0 (20211204.2007)
 -->
<!-- Pages: 1 -->
<svg width="163pt" height="560pt"
 viewBox="0.00 0.00 163.05 560.00" xmlns="http://www.w3.org/2000/svg" xmlns:xlink="http://www.w3.org/1999/xlink">
<g id="graph0" class="graph" transform="scale(1 1) rotate(0) translate(4 556)">
<polygon fill="white" stroke="transparent" points="-4,4 -4,-556 159.05,-556 159.05,4 -4,4"/>
<!-- fake -->
<g id="node1" class="node">
<title>fake</title>
</g>
<!-- S -->
<g id="node4" class="node">
<title>S</title>
<ellipse fill="none" stroke="black" cx="77.05" cy="-461" rx="27" ry="18"/>
<text text-anchor="middle" x="77.05" y="-457.3" font-family="Times New Roman,serif" font-size="14.00">S</text>
</g>
<!-- fake&#45;&gt;S -->
<g id="edge1" class="edge">
<title>fake&#45;&gt;S</title>
<path fill="none" stroke="black" stroke-width="2" d="M77.05,-515.81C77.05,-507.79 77.05,-498.05 77.05,-489.07"/>
<polygon fill="black" stroke="black" stroke-width="2" points="80.55,-489.03 77.05,-479.03 73.55,-489.03 80.55,-489.03"/>
</g>
<!-- E -->
<g id="node2" class="node">
<title>E</title>
<ellipse fill="none" stroke="black" cx="121.05" cy="-22" rx="18" ry="18"/>
<ellipse fill="none" stroke="black" cx="121.05" cy="-22" rx="22" ry="22"/>
<text text-anchor="middle" x="121.05" y="-18.3" font-family="Times New Roman,serif" font-size="14.00">E</text>
</g>
<!-- 2 -->
<g id="node3" class="node">
<title>2</title>
<ellipse fill="none" stroke="black" cx="47.05" cy="-287" rx="27" ry="18"/>
<text text-anchor="middle" x="47.05" y="-283.3" font-family="Times New Roman,serif" font-size="14.00">2</text>
</g>
<!-- 2&#45;&gt;S -->
<g id="edge3" class="edge">
<title>2&#45;&gt;S</title>
<path fill="none" stroke="black" d="M33.35,-302.54C16.09,-322.71 -9.75,-360.29 4.05,-392 13.23,-413.1 32.54,-430.61 48.99,-442.58"/>
<polygon fill="black" stroke="black" points="47.06,-445.49 57.27,-448.32 51.05,-439.74 47.06,-445.49"/>
<text text-anchor="middle" x="7.55" y="-370.3" font-family="Times New Roman,serif" font-size="14.00">0</text>
</g>
<!-- 3 -->
<g id="node5" class="node">
<title>3</title>
<ellipse fill="none" stroke="black" cx="93.05" cy="-200" rx="27" ry="18"/>
<text text-anchor="middle" x="93.05" y="-196.3" font-family="Times New Roman,serif" font-size="14.00">3</text>
</g>
<!-- 2&#45;&gt;3 -->
<g id="edge9" class="edge">
<title>2&#45;&gt;3</title>
<path fill="none" stroke="black" d="M55.92,-269.61C62.58,-257.3 71.82,-240.23 79.42,-226.19"/>
<polygon fill="black" stroke="black" points="82.68,-227.51 84.36,-217.05 76.52,-224.18 82.68,-227.51"/>
<text text-anchor="middle" x="75.55" y="-239.8" font-family="Times New Roman,serif" font-size="14.00">1</text>
</g>
<!-- S&#45;&gt;S -->
<g id="edge6" class="edge">
<title>S&#45;&gt;S</title>
<path fill="none" stroke="black" d="M102.49,-467.69C113.07,-468.15 122.05,-465.92 122.05,-461 122.05,-457.77 118.18,-455.7 112.53,-454.79"/>
<polygon fill="black" stroke="black" points="112.64,-451.29 102.49,-454.31 112.31,-458.28 112.64,-451.29"/>
<text text-anchor="middle" x="125.55" y="-457.3" font-family="Times New Roman,serif" font-size="14.00">0</text>
</g>
<!-- 1 -->
<g id="node7" class="node">
<title>1</title>
<ellipse fill="none" stroke="black" cx="47.05" cy="-374" rx="27" ry="18"/>
<text text-anchor="middle" x="47.05" y="-370.3" font-family="Times New Roman,serif" font-size="14.00">1</text>
</g>
<!-- S&#45;&gt;1 -->
<g id="edge10" class="edge">
<title>S&#45;&gt;1</title>
<path fill="none" stroke="black" d="M62.76,-445.54C57.83,-439.65 52.85,-432.47 50.05,-425 47.39,-417.92 46.19,-409.87 45.77,-402.34"/>
<polygon fill="black" stroke="black" points="49.27,-402.13 45.62,-392.18 42.27,-402.23 49.27,-402.13"/>
<text text-anchor="middle" x="53.55" y="-413.8" font-family="Times New Roman,serif" font-size="14.00">1</text>
</g>
<!-- 3&#45;&gt;S -->
<g id="edge7" class="edge">
<title>3&#45;&gt;S</title>
<path fill="none" stroke="black" d="M92.35,-218.13C90.96,-251.58 87.55,-327.91 83.05,-392 82.1,-405.44 80.81,-420.36 79.67,-432.78"/>
<polygon fill="black" stroke="black" points="76.17,-432.68 78.72,-442.97 83.13,-433.34 76.17,-432.68"/>
<text text-anchor="middle" x="90.55" y="-326.8" font-family="Times New Roman,serif" font-size="14.00">0</text>
</g>
<!-- 4 -->
<g id="node6" class="node">
<title>4</title>
<ellipse fill="none" stroke="black" cx="121.05" cy="-113" rx="27" ry="18"/>
<text text-anchor="middle" x="121.05" y="-109.3" font-family="Times New Roman,serif" font-size="14.00">4</text>
</g>
<!-- 3&#45;&gt;4 -->
<g id="edge11" class="edge">
<title>3&#45;&gt;4</title>
<path fill="none" stroke="black" d="M98.58,-182.21C102.49,-170.33 107.81,-154.17 112.3,-140.56"/>
<polygon fill="black" stroke="black" points="115.72,-141.35 115.53,-130.76 109.07,-139.16 115.72,-141.35"/>
<text text-anchor="middle" x="111.55" y="-152.8" font-family="Times New Roman,serif" font-size="14.00">1</text>
</g>
<!-- 4&#45;&gt;E -->
<g id="edge4" class="edge">
<title>4&#45;&gt;E</title>
<path fill="none" stroke="black" d="M121.05,-94.84C121.05,-83.44 121.05,-68.13 121.05,-54.58"/>
<polygon fill="black" stroke="black" points="124.55,-54.19 121.05,-44.19 117.55,-54.19 124.55,-54.19"/>
<text text-anchor="middle" x="124.55" y="-65.8" font-family="Times New Roman,serif" font-size="14.00">1</text>
</g>
<!-- 4&#45;&gt;S -->
<g id="edge2" class="edge">
<title>4&#45;&gt;S</title>
<path fill="none" stroke="black" d="M129.44,-130.13C137.37,-146.88 148.05,-174.07 148.05,-199 148.05,-375 148.05,-375 148.05,-375 148.05,-403.26 124.64,-427.1 104.7,-442.27"/>
<polygon fill="black" stroke="black" points="102.51,-439.53 96.45,-448.22 106.6,-445.21 102.51,-439.53"/>
<text text-anchor="middle" x="151.55" y="-283.3" font-family="Times New Roman,serif" font-size="14.00">0</text>
</g>
<!-- 1&#45;&gt;2 -->
<g id="edge8" class="edge">
<title>1&#45;&gt;2</title>
<path fill="none" stroke="black" d="M47.05,-355.8C47.05,-344.16 47.05,-328.55 47.05,-315.24"/>
<polygon fill="black" stroke="black" points="50.55,-315.18 47.05,-305.18 43.55,-315.18 50.55,-315.18"/>
<text text-anchor="middle" x="50.55" y="-326.8" font-family="Times New Roman,serif" font-size="14.00">1</text>
</g>
<!-- 1&#45;&gt;S -->
<g id="edge5" class="edge">
<title>1&#45;&gt;S</title>
<path fill="none" stroke="black" d="M52.96,-391.76C57.15,-403.62 62.85,-419.79 67.66,-433.4"/>
<polygon fill="black" stroke="black" points="64.49,-434.94 71.12,-443.21 71.09,-432.61 64.49,-434.94"/>
<text text-anchor="middle" x="66.55" y="-413.8" font-family="Times New Roman,serif" font-size="14.00">0</text>
</g>
</g>
</svg>
