<?xml version="1.0" encoding="UTF-8" standalone="no"?>
<!DOCTYPE svg PUBLIC "-//W3C//DTD SVG 1.1//EN"
 "http://www.w3.org/Graphics/SVG/1.1/DTD/svg11.dtd">
<!-- Generated by graphviz version 2.50.0 (20211204.2007)
 -->
<!-- Pages: 1 -->
<svg width="2363pt" height="623pt"
 viewBox="0.00 0.00 2363.00 623.00" xmlns="http://www.w3.org/2000/svg" xmlns:xlink="http://www.w3.org/1999/xlink">
<g id="graph0" class="graph" transform="scale(1 1) rotate(0) translate(4 619)">
<polygon fill="white" stroke="transparent" points="-4,4 -4,-619 2359,-619 2359,4 -4,4"/>
<!-- fake -->
<g id="node1" class="node">
<title>fake</title>
</g>
<!-- S -->
<g id="node30" class="node">
<title>S</title>
<ellipse fill="none" stroke="black" cx="1027" cy="-524" rx="27" ry="18"/>
<text text-anchor="middle" x="1027" y="-520.3" font-family="Times New Roman,serif" font-size="14.00">S</text>
</g>
<!-- fake&#45;&gt;S -->
<g id="edge1" class="edge">
<title>fake&#45;&gt;S</title>
<path fill="none" stroke="black" stroke-width="2" d="M1027,-578.81C1027,-570.79 1027,-561.05 1027,-552.07"/>
<polygon fill="black" stroke="black" stroke-width="2" points="1030.5,-552.03 1027,-542.03 1023.5,-552.03 1030.5,-552.03"/>
</g>
<!-- 12 -->
<g id="node2" class="node">
<title>12</title>
<ellipse fill="none" stroke="black" cx="27" cy="-113" rx="27" ry="18"/>
<text text-anchor="middle" x="27" y="-109.3" font-family="Times New Roman,serif" font-size="14.00">12</text>
</g>
<!-- E -->
<g id="node8" class="node">
<title>E</title>
<ellipse fill="none" stroke="black" cx="1232" cy="-22" rx="18" ry="18"/>
<ellipse fill="none" stroke="black" cx="1232" cy="-22" rx="22" ry="22"/>
<text text-anchor="middle" x="1232" y="-18.3" font-family="Times New Roman,serif" font-size="14.00">E</text>
</g>
<!-- 12&#45;&gt;E -->
<g id="edge49" class="edge">
<title>12&#45;&gt;E</title>
<path fill="none" stroke="black" d="M21.25,-95.41C18.61,-84.46 17.67,-70.61 26,-62 67.99,-18.63 1012.28,-21.74 1199.8,-22.79"/>
<polygon fill="black" stroke="black" points="1199.83,-26.29 1209.85,-22.85 1199.87,-19.29 1199.83,-26.29"/>
<text text-anchor="middle" x="36" y="-65.8" font-family="Times New Roman,serif" font-size="14.00">this</text>
</g>
<!-- 12&#45;&gt;E -->
<g id="edge75" class="edge">
<title>12&#45;&gt;E</title>
<path fill="none" stroke="black" d="M36.25,-95.75C43.9,-84.04 55.94,-69.11 71,-62 123.41,-37.24 1018.17,-25.5 1199.94,-23.36"/>
<polygon fill="black" stroke="black" points="1199.98,-26.86 1209.94,-23.24 1199.9,-19.86 1199.98,-26.86"/>
<text text-anchor="middle" x="74.5" y="-65.8" font-family="Times New Roman,serif" font-size="14.00">it</text>
</g>
<!-- 8 -->
<g id="node3" class="node">
<title>8</title>
<ellipse fill="none" stroke="black" cx="2307" cy="-113" rx="27" ry="18"/>
<text text-anchor="middle" x="2307" y="-109.3" font-family="Times New Roman,serif" font-size="14.00">8</text>
</g>
<!-- 8&#45;&gt;E -->
<g id="edge47" class="edge">
<title>8&#45;&gt;E</title>
<path fill="none" stroke="black" d="M2287.13,-100.74C2275.37,-93.99 2260.24,-85.17 2247,-77 2236.61,-70.59 2235.63,-65.71 2224,-62 2130.9,-32.32 1424.22,-24.62 1264.16,-23.25"/>
<polygon fill="black" stroke="black" points="1264.04,-19.75 1254.01,-23.16 1263.98,-26.75 1264.04,-19.75"/>
<text text-anchor="middle" x="2270" y="-65.8" font-family="Times New Roman,serif" font-size="14.00">amazing</text>
</g>
<!-- 8&#45;&gt;E -->
<g id="edge76" class="edge">
<title>8&#45;&gt;E</title>
<path fill="none" stroke="black" d="M2307.05,-94.83C2306.08,-83.63 2302.77,-69.7 2293,-62 2251.61,-29.39 1437.32,-23.92 1264.19,-23.12"/>
<polygon fill="black" stroke="black" points="1264.18,-19.62 1254.17,-23.08 1264.15,-26.62 1264.18,-19.62"/>
<text text-anchor="middle" x="2329" y="-65.8" font-family="Times New Roman,serif" font-size="14.00">awesome</text>
</g>
<!-- 18 -->
<g id="node4" class="node">
<title>18</title>
<ellipse fill="none" stroke="black" cx="1783" cy="-113" rx="27" ry="18"/>
<text text-anchor="middle" x="1783" y="-109.3" font-family="Times New Roman,serif" font-size="14.00">18</text>
</g>
<!-- 18&#45;&gt;E -->
<g id="edge78" class="edge">
<title>18&#45;&gt;E</title>
<path fill="none" stroke="black" d="M1776.55,-95.05C1771.25,-83.64 1762.55,-69.38 1750,-62 1708.19,-37.43 1370.9,-26.61 1264.22,-23.79"/>
<polygon fill="black" stroke="black" points="1264.15,-20.28 1254.07,-23.52 1263.97,-27.28 1264.15,-20.28"/>
<text text-anchor="middle" x="1783" y="-65.8" font-family="Times New Roman,serif" font-size="14.00">places</text>
</g>
<!-- 33 -->
<g id="node5" class="node">
<title>33</title>
<ellipse fill="none" stroke="black" cx="89" cy="-167" rx="27" ry="18"/>
<text text-anchor="middle" x="89" y="-163.3" font-family="Times New Roman,serif" font-size="14.00">33</text>
</g>
<!-- 33&#45;&gt;E -->
<g id="edge17" class="edge">
<title>33&#45;&gt;E</title>
<path fill="none" stroke="black" d="M89.05,-148.81C89.87,-133.47 93.08,-111.04 104,-95 118.99,-72.99 128.64,-70.12 154,-62 255.66,-29.46 1031.28,-23.95 1199.77,-23.13"/>
<polygon fill="black" stroke="black" points="1199.99,-26.63 1209.97,-23.08 1199.96,-19.63 1199.99,-26.63"/>
<text text-anchor="middle" x="129" y="-109.3" font-family="Times New Roman,serif" font-size="14.00">delicious</text>
</g>
<!-- 32 -->
<g id="node6" class="node">
<title>32</title>
<ellipse fill="none" stroke="black" cx="134" cy="-275" rx="27" ry="18"/>
<text text-anchor="middle" x="134" y="-271.3" font-family="Times New Roman,serif" font-size="14.00">32</text>
</g>
<!-- 32&#45;&gt;E -->
<g id="edge6" class="edge">
<title>32&#45;&gt;E</title>
<path fill="none" stroke="black" d="M136.07,-257.04C142.05,-211.2 160.91,-86.66 192,-62 232.41,-29.95 1028.22,-24.05 1199.64,-23.14"/>
<polygon fill="black" stroke="black" points="1199.82,-26.64 1209.8,-23.09 1199.78,-19.64 1199.82,-26.64"/>
<text text-anchor="middle" x="166.5" y="-163.3" font-family="Times New Roman,serif" font-size="14.00">and</text>
</g>
<!-- 17 -->
<g id="node7" class="node">
<title>17</title>
<ellipse fill="none" stroke="black" cx="1775" cy="-221" rx="27" ry="18"/>
<text text-anchor="middle" x="1775" y="-217.3" font-family="Times New Roman,serif" font-size="14.00">17</text>
</g>
<!-- 17&#45;&gt;18 -->
<g id="edge32" class="edge">
<title>17&#45;&gt;18</title>
<path fill="none" stroke="black" d="M1776.29,-202.97C1777.54,-186.28 1779.48,-160.58 1780.96,-141.08"/>
<polygon fill="black" stroke="black" points="1784.46,-141.22 1781.72,-130.99 1777.48,-140.7 1784.46,-141.22"/>
<text text-anchor="middle" x="1801.5" y="-163.3" font-family="Times New Roman,serif" font-size="14.00">favorite</text>
</g>
<!-- E&#45;&gt;E -->
<g id="edge48" class="edge">
<title>E&#45;&gt;E</title>
<path fill="none" stroke="black" d="M1252.58,-30.37C1262.84,-31.53 1272,-28.74 1272,-22 1272,-17.68 1268.24,-14.99 1262.84,-13.91"/>
<polygon fill="black" stroke="black" points="1262.67,-10.41 1252.58,-13.63 1262.48,-17.4 1262.67,-10.41"/>
<text text-anchor="middle" x="1287" y="-18.3" font-family="Times New Roman,serif" font-size="14.00">good</text>
</g>
<!-- 22 -->
<g id="node9" class="node">
<title>22</title>
<ellipse fill="none" stroke="black" cx="1364" cy="-113" rx="27" ry="18"/>
<text text-anchor="middle" x="1364" y="-109.3" font-family="Times New Roman,serif" font-size="14.00">22</text>
</g>
<!-- 22&#45;&gt;E -->
<g id="edge18" class="edge">
<title>22&#45;&gt;E</title>
<path fill="none" stroke="black" d="M1340.25,-103.95C1312.23,-94.39 1269.03,-79.43 1266,-77 1257.51,-70.19 1250.53,-60.65 1245.15,-51.49"/>
<polygon fill="black" stroke="black" points="1248.15,-49.68 1240.3,-42.56 1242,-53.02 1248.15,-49.68"/>
<text text-anchor="middle" x="1278" y="-65.8" font-family="Times New Roman,serif" font-size="14.00">love</text>
</g>
<!-- 22&#45;&gt;E -->
<g id="edge34" class="edge">
<title>22&#45;&gt;E</title>
<path fill="none" stroke="black" d="M1345.76,-99.66C1330.79,-89.53 1309.03,-74.83 1290,-62 1279.75,-55.09 1268.48,-47.51 1258.62,-40.88"/>
<polygon fill="black" stroke="black" points="1260.29,-37.78 1250.03,-35.11 1256.38,-43.59 1260.29,-37.78"/>
<text text-anchor="middle" x="1333" y="-65.8" font-family="Times New Roman,serif" font-size="14.00">amazing</text>
</g>
<!-- 22&#45;&gt;E -->
<g id="edge64" class="edge">
<title>22&#45;&gt;E</title>
<path fill="none" stroke="black" d="M1366.72,-94.92C1367.43,-84.32 1366.41,-71.04 1359,-62 1336.16,-34.11 1293.86,-25.74 1264.39,-23.45"/>
<polygon fill="black" stroke="black" points="1264.35,-19.94 1254.17,-22.85 1263.95,-26.93 1264.35,-19.94"/>
<text text-anchor="middle" x="1390" y="-65.8" font-family="Times New Roman,serif" font-size="14.00">delicious</text>
</g>
<!-- 21 -->
<g id="node10" class="node">
<title>21</title>
<ellipse fill="none" stroke="black" cx="1987" cy="-113" rx="27" ry="18"/>
<text text-anchor="middle" x="1987" y="-109.3" font-family="Times New Roman,serif" font-size="14.00">21</text>
</g>
<!-- 21&#45;&gt;E -->
<g id="edge43" class="edge">
<title>21&#45;&gt;E</title>
<path fill="none" stroke="black" d="M1968.13,-100.06C1957.5,-93.32 1943.99,-84.72 1932,-77 1921.74,-70.39 1920.59,-65.81 1909,-62 1787.13,-21.92 1382.08,-21.82 1264.35,-22.67"/>
<polygon fill="black" stroke="black" points="1264.15,-19.17 1254.18,-22.75 1264.21,-26.17 1264.15,-19.17"/>
<text text-anchor="middle" x="1944" y="-65.8" font-family="Times New Roman,serif" font-size="14.00">best</text>
</g>
<!-- 5 -->
<g id="node11" class="node">
<title>5</title>
<ellipse fill="none" stroke="black" cx="1711" cy="-113" rx="27" ry="18"/>
<text text-anchor="middle" x="1711" y="-109.3" font-family="Times New Roman,serif" font-size="14.00">5</text>
</g>
<!-- 5&#45;&gt;E -->
<g id="edge12" class="edge">
<title>5&#45;&gt;E</title>
<path fill="none" stroke="black" d="M1689.53,-102.05C1675.51,-95.36 1656.91,-86.13 1641,-77 1630.41,-70.93 1629.51,-66.06 1618,-62 1552.96,-39.04 1344.93,-27.86 1264.33,-24.3"/>
<polygon fill="black" stroke="black" points="1264.41,-20.8 1254.27,-23.87 1264.11,-27.79 1264.41,-20.8"/>
<text text-anchor="middle" x="1656" y="-65.8" font-family="Times New Roman,serif" font-size="14.00">good</text>
</g>
<!-- 5&#45;&gt;E -->
<g id="edge70" class="edge">
<title>5&#45;&gt;E</title>
<path fill="none" stroke="black" d="M1702.54,-95.52C1695.7,-84.03 1684.91,-69.46 1671,-62 1600.62,-24.25 1353.09,-22.13 1264.13,-22.64"/>
<polygon fill="black" stroke="black" points="1264.07,-19.14 1254.1,-22.71 1264.12,-26.14 1264.07,-19.14"/>
<text text-anchor="middle" x="1698.5" y="-65.8" font-family="Times New Roman,serif" font-size="14.00">and</text>
</g>
<!-- 5&#45;&gt;E -->
<g id="edge79" class="edge">
<title>5&#45;&gt;E</title>
<path fill="none" stroke="black" d="M1717.19,-95.07C1719.94,-84.25 1721.01,-70.69 1713,-62 1682.62,-29.06 1367.12,-23.94 1264.24,-23.14"/>
<polygon fill="black" stroke="black" points="1264.16,-19.64 1254.14,-23.08 1264.12,-26.64 1264.16,-19.64"/>
<text text-anchor="middle" x="1732" y="-65.8" font-family="Times New Roman,serif" font-size="14.00">great</text>
</g>
<!-- 23 -->
<g id="node12" class="node">
<title>23</title>
<ellipse fill="none" stroke="black" cx="1847" cy="-221" rx="27" ry="18"/>
<text text-anchor="middle" x="1847" y="-217.3" font-family="Times New Roman,serif" font-size="14.00">23</text>
</g>
<!-- 24 -->
<g id="node28" class="node">
<title>24</title>
<ellipse fill="none" stroke="black" cx="1855" cy="-113" rx="27" ry="18"/>
<text text-anchor="middle" x="1855" y="-109.3" font-family="Times New Roman,serif" font-size="14.00">24</text>
</g>
<!-- 23&#45;&gt;24 -->
<g id="edge51" class="edge">
<title>23&#45;&gt;24</title>
<path fill="none" stroke="black" d="M1848.29,-202.97C1849.54,-186.28 1851.48,-160.58 1852.96,-141.08"/>
<polygon fill="black" stroke="black" points="1856.46,-141.22 1853.72,-130.99 1849.48,-140.7 1856.46,-141.22"/>
<text text-anchor="middle" x="1864" y="-163.3" font-family="Times New Roman,serif" font-size="14.00">best</text>
</g>
<!-- 9 -->
<g id="node13" class="node">
<title>9</title>
<ellipse fill="none" stroke="black" cx="1428" cy="-437" rx="27" ry="18"/>
<text text-anchor="middle" x="1428" y="-433.3" font-family="Times New Roman,serif" font-size="14.00">9</text>
</g>
<!-- 10 -->
<g id="node24" class="node">
<title>10</title>
<ellipse fill="none" stroke="black" cx="1438" cy="-275" rx="27" ry="18"/>
<text text-anchor="middle" x="1438" y="-271.3" font-family="Times New Roman,serif" font-size="14.00">10</text>
</g>
<!-- 9&#45;&gt;10 -->
<g id="edge50" class="edge">
<title>9&#45;&gt;10</title>
<path fill="none" stroke="black" d="M1429.07,-418.88C1430.8,-391.21 1434.22,-336.44 1436.29,-303.33"/>
<polygon fill="black" stroke="black" points="1439.81,-303.2 1436.94,-293 1432.82,-302.76 1439.81,-303.2"/>
<text text-anchor="middle" x="1444" y="-379.3" font-family="Times New Roman,serif" font-size="14.00">time</text>
</g>
<!-- 25 -->
<g id="node14" class="node">
<title>25</title>
<ellipse fill="none" stroke="black" cx="1497" cy="-275" rx="27" ry="18"/>
<text text-anchor="middle" x="1497" y="-271.3" font-family="Times New Roman,serif" font-size="14.00">25</text>
</g>
<!-- 26 -->
<g id="node20" class="node">
<title>26</title>
<ellipse fill="none" stroke="black" cx="1479" cy="-113" rx="27" ry="18"/>
<text text-anchor="middle" x="1479" y="-109.3" font-family="Times New Roman,serif" font-size="14.00">26</text>
</g>
<!-- 25&#45;&gt;26 -->
<g id="edge81" class="edge">
<title>25&#45;&gt;26</title>
<path fill="none" stroke="black" d="M1495.04,-256.91C1494.39,-251.21 1493.66,-244.83 1493,-239 1489.18,-205.2 1484.82,-166.26 1482,-140.95"/>
<polygon fill="black" stroke="black" points="1485.48,-140.54 1480.89,-130.98 1478.52,-141.31 1485.48,-140.54"/>
<text text-anchor="middle" x="1505" y="-217.3" font-family="Times New Roman,serif" font-size="14.00">best</text>
</g>
<!-- 29 -->
<g id="node15" class="node">
<title>29</title>
<ellipse fill="none" stroke="black" cx="2164" cy="-167" rx="27" ry="18"/>
<text text-anchor="middle" x="2164" y="-163.3" font-family="Times New Roman,serif" font-size="14.00">29</text>
</g>
<!-- 29&#45;&gt;E -->
<g id="edge33" class="edge">
<title>29&#45;&gt;E</title>
<path fill="none" stroke="black" d="M2163.63,-148.98C2162.1,-125.14 2155.42,-82.44 2128,-62 2092.72,-35.7 1420.99,-25.44 1264.42,-23.4"/>
<polygon fill="black" stroke="black" points="1264.1,-19.89 1254.06,-23.26 1264.01,-26.89 1264.1,-19.89"/>
<text text-anchor="middle" x="2176" y="-109.3" font-family="Times New Roman,serif" font-size="14.00">place</text>
</g>
<!-- 14 -->
<g id="node16" class="node">
<title>14</title>
<ellipse fill="none" stroke="black" cx="1539" cy="-383" rx="27" ry="18"/>
<text text-anchor="middle" x="1539" y="-379.3" font-family="Times New Roman,serif" font-size="14.00">14</text>
</g>
<!-- 14&#45;&gt;E -->
<g id="edge37" class="edge">
<title>14&#45;&gt;E</title>
<path fill="none" stroke="black" d="M1540.77,-364.65C1546.5,-304.51 1561.9,-106.22 1521,-62 1486.9,-25.13 1332.09,-21.98 1264.14,-22.43"/>
<polygon fill="black" stroke="black" points="1263.98,-18.94 1254.01,-22.53 1264.05,-25.94 1263.98,-18.94"/>
<text text-anchor="middle" x="1569.5" y="-217.3" font-family="Times New Roman,serif" font-size="14.00">favorite</text>
</g>
<!-- 4 -->
<g id="node17" class="node">
<title>4</title>
<ellipse fill="none" stroke="black" cx="1632" cy="-221" rx="27" ry="18"/>
<text text-anchor="middle" x="1632" y="-217.3" font-family="Times New Roman,serif" font-size="14.00">4</text>
</g>
<!-- 4&#45;&gt;E -->
<g id="edge38" class="edge">
<title>4&#45;&gt;E</title>
<path fill="none" stroke="black" d="M1624.64,-203.36C1616.82,-185.54 1604.21,-156.41 1594,-131 1581.79,-100.59 1593.83,-82.17 1568,-62 1521.24,-25.48 1338.97,-22.32 1264.23,-22.6"/>
<polygon fill="black" stroke="black" points="1264,-19.1 1254.02,-22.66 1264.04,-26.1 1264,-19.1"/>
<text text-anchor="middle" x="1604.5" y="-109.3" font-family="Times New Roman,serif" font-size="14.00">and</text>
</g>
<!-- 4&#45;&gt;E -->
<g id="edge82" class="edge">
<title>4&#45;&gt;E</title>
<path fill="none" stroke="black" d="M1633.92,-202.95C1636.78,-167.89 1637.31,-88.75 1588,-62 1532.54,-31.91 1341.27,-25.02 1264.38,-23.45"/>
<polygon fill="black" stroke="black" points="1264.38,-19.95 1254.31,-23.27 1264.25,-26.95 1264.38,-19.95"/>
<text text-anchor="middle" x="1644.5" y="-109.3" font-family="Times New Roman,serif" font-size="14.00">pizza</text>
</g>
<!-- 4&#45;&gt;5 -->
<g id="edge25" class="edge">
<title>4&#45;&gt;5</title>
<path fill="none" stroke="black" d="M1643.66,-204.36C1656.8,-186.72 1678.31,-157.86 1693.48,-137.5"/>
<polygon fill="black" stroke="black" points="1696.38,-139.47 1699.55,-129.36 1690.77,-135.29 1696.38,-139.47"/>
<text text-anchor="middle" x="1697" y="-163.3" font-family="Times New Roman,serif" font-size="14.00">food</text>
</g>
<!-- 15 -->
<g id="node18" class="node">
<title>15</title>
<ellipse fill="none" stroke="black" cx="1694" cy="-437" rx="27" ry="18"/>
<text text-anchor="middle" x="1694" y="-433.3" font-family="Times New Roman,serif" font-size="14.00">15</text>
</g>
<!-- 16 -->
<g id="node22" class="node">
<title>16</title>
<ellipse fill="none" stroke="black" cx="1775" cy="-329" rx="27" ry="18"/>
<text text-anchor="middle" x="1775" y="-325.3" font-family="Times New Roman,serif" font-size="14.00">16</text>
</g>
<!-- 15&#45;&gt;16 -->
<g id="edge80" class="edge">
<title>15&#45;&gt;16</title>
<path fill="none" stroke="black" d="M1705.95,-420.36C1719.43,-402.72 1741.49,-373.86 1757.04,-353.5"/>
<polygon fill="black" stroke="black" points="1759.97,-355.43 1763.26,-345.36 1754.41,-351.18 1759.97,-355.43"/>
<text text-anchor="middle" x="1752.5" y="-379.3" font-family="Times New Roman,serif" font-size="14.00">of</text>
</g>
<!-- 31 -->
<g id="node19" class="node">
<title>31</title>
<ellipse fill="none" stroke="black" cx="2235" cy="-113" rx="27" ry="18"/>
<text text-anchor="middle" x="2235" y="-109.3" font-family="Times New Roman,serif" font-size="14.00">31</text>
</g>
<!-- 31&#45;&gt;E -->
<g id="edge40" class="edge">
<title>31&#45;&gt;E</title>
<path fill="none" stroke="black" d="M2218.87,-98.55C2201.77,-84.44 2176.49,-64.02 2171,-62 2084.54,-30.21 1419.9,-24.16 1264.45,-23.17"/>
<polygon fill="black" stroke="black" points="1264.17,-19.67 1254.15,-23.11 1264.13,-26.67 1264.17,-19.67"/>
<text text-anchor="middle" x="2206" y="-65.8" font-family="Times New Roman,serif" font-size="14.00">place</text>
</g>
<!-- 26&#45;&gt;E -->
<g id="edge29" class="edge">
<title>26&#45;&gt;E</title>
<path fill="none" stroke="black" d="M1475.86,-95.06C1472.89,-83.96 1467.31,-70.07 1457,-62 1427.51,-38.92 1319.03,-28.67 1264.19,-24.88"/>
<polygon fill="black" stroke="black" points="1264.18,-21.37 1253.97,-24.2 1263.72,-28.35 1264.18,-21.37"/>
<text text-anchor="middle" x="1473" y="-65.8" font-family="Times New Roman,serif" font-size="14.00">in</text>
</g>
<!-- 26&#45;&gt;E -->
<g id="edge36" class="edge">
<title>26&#45;&gt;E</title>
<path fill="none" stroke="black" d="M1485.43,-95.26C1488.36,-84.53 1489.69,-70.98 1482,-62 1454.38,-29.73 1325.82,-23.96 1264.59,-23.07"/>
<polygon fill="black" stroke="black" points="1264.36,-19.56 1254.33,-22.95 1264.29,-26.56 1264.36,-19.56"/>
<text text-anchor="middle" x="1502" y="-65.8" font-family="Times New Roman,serif" font-size="14.00">place</text>
</g>
<!-- 19 -->
<g id="node21" class="node">
<title>19</title>
<ellipse fill="none" stroke="black" cx="1820" cy="-383" rx="27" ry="18"/>
<text text-anchor="middle" x="1820" y="-379.3" font-family="Times New Roman,serif" font-size="14.00">19</text>
</g>
<!-- 20 -->
<g id="node33" class="node">
<title>20</title>
<ellipse fill="none" stroke="black" cx="1919" cy="-221" rx="27" ry="18"/>
<text text-anchor="middle" x="1919" y="-217.3" font-family="Times New Roman,serif" font-size="14.00">20</text>
</g>
<!-- 19&#45;&gt;20 -->
<g id="edge44" class="edge">
<title>19&#45;&gt;20</title>
<path fill="none" stroke="black" d="M1829.85,-366.07C1847.2,-338.04 1883.29,-279.71 1903.83,-246.51"/>
<polygon fill="black" stroke="black" points="1906.9,-248.21 1909.19,-237.86 1900.95,-244.52 1906.9,-248.21"/>
<text text-anchor="middle" x="1879" y="-325.3" font-family="Times New Roman,serif" font-size="14.00">down</text>
</g>
<!-- 16&#45;&gt;17 -->
<g id="edge41" class="edge">
<title>16&#45;&gt;17</title>
<path fill="none" stroke="black" d="M1775,-310.97C1775,-294.38 1775,-268.88 1775,-249.43"/>
<polygon fill="black" stroke="black" points="1778.5,-249.34 1775,-239.34 1771.5,-249.34 1778.5,-249.34"/>
<text text-anchor="middle" x="1784" y="-271.3" font-family="Times New Roman,serif" font-size="14.00">my</text>
</g>
<!-- 16&#45;&gt;23 -->
<g id="edge62" class="edge">
<title>16&#45;&gt;23</title>
<path fill="none" stroke="black" d="M1785.62,-312.36C1797.48,-294.9 1816.81,-266.44 1830.61,-246.13"/>
<polygon fill="black" stroke="black" points="1833.61,-247.94 1836.33,-237.7 1827.82,-244.01 1833.61,-247.94"/>
<text text-anchor="middle" x="1829.5" y="-271.3" font-family="Times New Roman,serif" font-size="14.00">the</text>
</g>
<!-- 30 -->
<g id="node23" class="node">
<title>30</title>
<ellipse fill="none" stroke="black" cx="2235" cy="-221" rx="27" ry="18"/>
<text text-anchor="middle" x="2235" y="-217.3" font-family="Times New Roman,serif" font-size="14.00">30</text>
</g>
<!-- 30&#45;&gt;31 -->
<g id="edge60" class="edge">
<title>30&#45;&gt;31</title>
<path fill="none" stroke="black" d="M2235,-202.97C2235,-186.38 2235,-160.88 2235,-141.43"/>
<polygon fill="black" stroke="black" points="2238.5,-141.34 2235,-131.34 2231.5,-141.34 2238.5,-141.34"/>
<text text-anchor="middle" x="2249" y="-163.3" font-family="Times New Roman,serif" font-size="14.00">great</text>
</g>
<!-- 10&#45;&gt;E -->
<g id="edge16" class="edge">
<title>10&#45;&gt;E</title>
<path fill="none" stroke="black" d="M1438.97,-256.81C1441.16,-211.55 1444.43,-90.57 1419,-62 1398.86,-39.37 1312.24,-29.18 1264.27,-25.2"/>
<polygon fill="black" stroke="black" points="1264.34,-21.69 1254.1,-24.4 1263.79,-28.67 1264.34,-21.69"/>
<text text-anchor="middle" x="1452" y="-163.3" font-family="Times New Roman,serif" font-size="14.00">here</text>
</g>
<!-- 13 -->
<g id="node25" class="node">
<title>13</title>
<ellipse fill="none" stroke="black" cx="2059" cy="-113" rx="27" ry="18"/>
<text text-anchor="middle" x="2059" y="-109.3" font-family="Times New Roman,serif" font-size="14.00">13</text>
</g>
<!-- 13&#45;&gt;E -->
<g id="edge27" class="edge">
<title>13&#45;&gt;E</title>
<path fill="none" stroke="black" d="M2037.77,-101.74C2032.93,-99.47 2027.81,-97.12 2023,-95 2003.66,-86.49 1997.71,-86.82 1979,-77 1968.19,-71.33 1967.6,-65.79 1956,-62 1889.74,-40.35 1396.03,-26.96 1264.25,-23.75"/>
<polygon fill="black" stroke="black" points="1264.1,-20.25 1254.01,-23.51 1263.93,-27.25 1264.1,-20.25"/>
<text text-anchor="middle" x="2005" y="-65.8" font-family="Times New Roman,serif" font-size="14.00">awesome</text>
</g>
<!-- 13&#45;&gt;E -->
<g id="edge35" class="edge">
<title>13&#45;&gt;E</title>
<path fill="none" stroke="black" d="M2054.26,-95.02C2050.11,-83.6 2042.84,-69.33 2031,-62 1965.05,-21.15 1405.6,-21.9 1264.31,-22.75"/>
<polygon fill="black" stroke="black" points="1264.11,-19.25 1254.13,-22.82 1264.15,-26.25 1264.11,-19.25"/>
<text text-anchor="middle" x="2067" y="-65.8" font-family="Times New Roman,serif" font-size="14.00">amazing</text>
</g>
<!-- 11 -->
<g id="node26" class="node">
<title>11</title>
<ellipse fill="none" stroke="black" cx="2094" cy="-383" rx="27" ry="18"/>
<text text-anchor="middle" x="2094" y="-379.3" font-family="Times New Roman,serif" font-size="14.00">11</text>
</g>
<!-- 11&#45;&gt;E -->
<g id="edge65" class="edge">
<title>11&#45;&gt;E</title>
<path fill="none" stroke="black" d="M2096.95,-364.97C2106.89,-305.01 2136.3,-104.94 2094,-62 2064.35,-31.91 1417.61,-24.57 1264.35,-23.25"/>
<polygon fill="black" stroke="black" points="1264.22,-19.75 1254.19,-23.16 1264.16,-26.74 1264.22,-19.75"/>
<text text-anchor="middle" x="2130" y="-217.3" font-family="Times New Roman,serif" font-size="14.00">place</text>
</g>
<!-- 7 -->
<g id="node27" class="node">
<title>7</title>
<ellipse fill="none" stroke="black" cx="2307" cy="-221" rx="27" ry="18"/>
<text text-anchor="middle" x="2307" y="-217.3" font-family="Times New Roman,serif" font-size="14.00">7</text>
</g>
<!-- 7&#45;&gt;8 -->
<g id="edge53" class="edge">
<title>7&#45;&gt;8</title>
<path fill="none" stroke="black" d="M2307,-202.97C2307,-186.38 2307,-160.88 2307,-141.43"/>
<polygon fill="black" stroke="black" points="2310.5,-141.34 2307,-131.34 2303.5,-141.34 2310.5,-141.34"/>
<text text-anchor="middle" x="2312" y="-163.3" font-family="Times New Roman,serif" font-size="14.00">is</text>
</g>
<!-- 24&#45;&gt;E -->
<g id="edge77" class="edge">
<title>24&#45;&gt;E</title>
<path fill="none" stroke="black" d="M1844.28,-96.35C1835.28,-84.64 1821.32,-69.42 1805,-62 1755.76,-39.61 1378.28,-27.16 1264.42,-23.88"/>
<polygon fill="black" stroke="black" points="1264.33,-20.38 1254.24,-23.59 1264.14,-27.37 1264.33,-20.38"/>
<text text-anchor="middle" x="1830" y="-65.8" font-family="Times New Roman,serif" font-size="14.00">in</text>
</g>
<!-- 27 -->
<g id="node29" class="node">
<title>27</title>
<ellipse fill="none" stroke="black" cx="2130" cy="-437" rx="27" ry="18"/>
<text text-anchor="middle" x="2130" y="-433.3" font-family="Times New Roman,serif" font-size="14.00">27</text>
</g>
<!-- 28 -->
<g id="node31" class="node">
<title>28</title>
<ellipse fill="none" stroke="black" cx="2165" cy="-329" rx="27" ry="18"/>
<text text-anchor="middle" x="2165" y="-325.3" font-family="Times New Roman,serif" font-size="14.00">28</text>
</g>
<!-- 27&#45;&gt;28 -->
<g id="edge72" class="edge">
<title>27&#45;&gt;28</title>
<path fill="none" stroke="black" d="M2135.62,-418.97C2141.22,-402.03 2149.88,-375.79 2156.35,-356.2"/>
<polygon fill="black" stroke="black" points="2159.69,-357.23 2159.51,-346.64 2153.05,-355.04 2159.69,-357.23"/>
<text text-anchor="middle" x="2164" y="-379.3" font-family="Times New Roman,serif" font-size="14.00">love</text>
</g>
<!-- S&#45;&gt;12 -->
<g id="edge5" class="edge">
<title>S&#45;&gt;12</title>
<path fill="none" stroke="black" d="M1000.01,-522.81C857.43,-521.68 195.01,-515.03 108,-488 68.32,-475.67 29,-479.55 29,-438 29,-438 29,-438 29,-220 29,-193.23 28.35,-162.67 27.8,-141.26"/>
<polygon fill="black" stroke="black" points="31.3,-141.16 27.53,-131.26 24.3,-141.35 31.3,-141.16"/>
<text text-anchor="middle" x="44.5" y="-325.3" font-family="Times New Roman,serif" font-size="14.00">loved</text>
</g>
<!-- S&#45;&gt;33 -->
<g id="edge22" class="edge">
<title>S&#45;&gt;33</title>
<path fill="none" stroke="black" d="M999.65,-522.83C861,-521.83 239.15,-515.82 158,-488 121.83,-475.6 88,-476.23 88,-438 88,-438 88,-438 88,-274 88,-247.24 88.32,-216.67 88.6,-195.26"/>
<polygon fill="black" stroke="black" points="92.1,-195.3 88.74,-185.26 85.1,-195.21 92.1,-195.3"/>
<text text-anchor="middle" x="95" y="-379.3" font-family="Times New Roman,serif" font-size="14.00">so</text>
</g>
<!-- S&#45;&gt;32 -->
<g id="edge10" class="edge">
<title>S&#45;&gt;32</title>
<path fill="none" stroke="black" d="M999.78,-522.83C864.56,-521.88 268.41,-516.1 191,-488 168.36,-479.78 159.49,-476.17 148,-455 121.75,-406.62 125.05,-339.83 129.63,-303.03"/>
<polygon fill="black" stroke="black" points="133.1,-303.44 130.99,-293.06 126.17,-302.49 133.1,-303.44"/>
<text text-anchor="middle" x="169.5" y="-433.3" font-family="Times New Roman,serif" font-size="14.00">friendly</text>
</g>
<!-- S&#45;&gt;E -->
<g id="edge2" class="edge">
<title>S&#45;&gt;E</title>
<path fill="none" stroke="black" d="M999.75,-522.67C864.59,-520.94 271.4,-511.98 241,-488 199.53,-455.29 177.64,-309.3 185,-257 197.57,-167.71 170.06,-117.66 241,-62 279.57,-31.74 1033.86,-24.45 1199.87,-23.21"/>
<polygon fill="black" stroke="black" points="1199.96,-26.71 1209.94,-23.14 1199.91,-19.71 1199.96,-26.71"/>
<text text-anchor="middle" x="209" y="-271.3" font-family="Times New Roman,serif" font-size="14.00">beautiful</text>
</g>
<!-- S&#45;&gt;E -->
<g id="edge7" class="edge">
<title>S&#45;&gt;E</title>
<path fill="none" stroke="black" d="M1000.03,-522.5C879.52,-520.18 393.45,-509.51 329,-488 291.35,-475.43 255,-477.69 255,-438 255,-438 255,-438 255,-112 255,-72.31 291.31,-74.44 329,-62 412.95,-34.3 1048.77,-25.15 1199.86,-23.35"/>
<polygon fill="black" stroke="black" points="1199.93,-26.85 1209.89,-23.24 1199.85,-19.85 1199.93,-26.85"/>
<text text-anchor="middle" x="287.5" y="-271.3" font-family="Times New Roman,serif" font-size="14.00">outstanding</text>
</g>
<!-- S&#45;&gt;E -->
<g id="edge9" class="edge">
<title>S&#45;&gt;E</title>
<path fill="none" stroke="black" d="M999.86,-522.61C886.11,-520.81 450.98,-512.37 395,-488 365.6,-475.2 343,-470.06 343,-438 343,-438 343,-438 343,-112 343,-79.94 365.55,-74.67 395,-62 469.88,-29.79 1055.27,-24.09 1199.82,-23.17"/>
<polygon fill="black" stroke="black" points="1199.85,-26.67 1209.82,-23.1 1199.8,-19.67 1199.85,-26.67"/>
<text text-anchor="middle" x="364.5" y="-271.3" font-family="Times New Roman,serif" font-size="14.00">favorite</text>
</g>
<!-- S&#45;&gt;E -->
<g id="edge13" class="edge">
<title>S&#45;&gt;E</title>
<path fill="none" stroke="black" d="M1000,-522.28C895.31,-519.33 519.59,-507.5 470,-488 437.38,-475.17 409,-473.05 409,-438 409,-438 409,-438 409,-112 409,-76.95 437.3,-74.64 470,-62 538.72,-35.43 1063.49,-25.59 1199.75,-23.46"/>
<polygon fill="black" stroke="black" points="1200.01,-26.96 1209.95,-23.31 1199.9,-19.96 1200.01,-26.96"/>
<text text-anchor="middle" x="435" y="-271.3" font-family="Times New Roman,serif" font-size="14.00">awesome</text>
</g>
<!-- S&#45;&gt;E -->
<g id="edge14" class="edge">
<title>S&#45;&gt;E</title>
<path fill="none" stroke="black" d="M999.98,-523.33C910.38,-524.06 623.92,-523.51 540,-488 509.27,-475 484,-471.37 484,-438 484,-438 484,-438 484,-112 484,-78.63 509.17,-74.76 540,-62 601.31,-36.62 1070.69,-26.02 1199.43,-23.58"/>
<polygon fill="black" stroke="black" points="1199.87,-27.07 1209.8,-23.38 1199.74,-20.07 1199.87,-27.07"/>
<text text-anchor="middle" x="507.5" y="-271.3" font-family="Times New Roman,serif" font-size="14.00">fantastic</text>
</g>
<!-- S&#45;&gt;E -->
<g id="edge19" class="edge">
<title>S&#45;&gt;E</title>
<path fill="none" stroke="black" d="M999.92,-522.84C919.51,-522.05 683.36,-517.23 613,-488 581.26,-474.82 554,-472.37 554,-438 554,-438 554,-438 554,-112 554,-77.63 581.12,-74.84 613,-62 667.54,-40.03 1079.66,-27.16 1199.44,-23.85"/>
<polygon fill="black" stroke="black" points="1199.89,-27.34 1209.79,-23.57 1199.7,-20.35 1199.89,-27.34"/>
<text text-anchor="middle" x="579" y="-271.3" font-family="Times New Roman,serif" font-size="14.00">delicious</text>
</g>
<!-- S&#45;&gt;E -->
<g id="edge21" class="edge">
<title>S&#45;&gt;E</title>
<path fill="none" stroke="black" d="M999.89,-522.66C927.84,-521.4 733.21,-515.46 676,-488 647.95,-474.54 627,-469.11 627,-438 627,-438 627,-438 627,-112 627,-80.89 647.75,-75.05 676,-62 723.5,-40.06 1087.65,-27.35 1199.46,-23.94"/>
<polygon fill="black" stroke="black" points="1199.87,-27.43 1209.77,-23.63 1199.66,-20.43 1199.87,-27.43"/>
<text text-anchor="middle" x="647" y="-271.3" font-family="Times New Roman,serif" font-size="14.00">perfect</text>
</g>
<!-- S&#45;&gt;E -->
<g id="edge26" class="edge">
<title>S&#45;&gt;E</title>
<path fill="none" stroke="black" d="M999.86,-522.26C936.16,-520.13 778.93,-512.47 733,-488 707.13,-474.22 690,-467.31 690,-438 690,-438 690,-438 690,-112 690,-82.69 706.86,-75.25 733,-62 774.5,-40.96 1095.81,-27.83 1199.71,-24.1"/>
<polygon fill="black" stroke="black" points="1200.03,-27.59 1209.9,-23.74 1199.78,-20.59 1200.03,-27.59"/>
<text text-anchor="middle" x="707" y="-271.3" font-family="Times New Roman,serif" font-size="14.00">lovely</text>
</g>
<!-- S&#45;&gt;E -->
<g id="edge28" class="edge">
<title>S&#45;&gt;E</title>
<path fill="none" stroke="black" d="M1000.05,-522.24C942.77,-520.15 811.2,-512.72 775,-488 753.97,-473.64 747,-463.47 747,-438 747,-438 747,-438 747,-112 747,-86.53 753.59,-75.8 775,-62 810.52,-39.1 1101.4,-27.36 1199.69,-24.02"/>
<polygon fill="black" stroke="black" points="1200.03,-27.51 1209.91,-23.68 1199.8,-20.51 1200.03,-27.51"/>
<text text-anchor="middle" x="756.5" y="-271.3" font-family="Times New Roman,serif" font-size="14.00">fun</text>
</g>
<!-- S&#45;&gt;E -->
<g id="edge39" class="edge">
<title>S&#45;&gt;E</title>
<path fill="none" stroke="black" d="M1000.27,-520.81C952.5,-516.51 854.78,-505.77 826,-488 802.48,-473.48 789,-465.65 789,-438 789,-438 789,-438 789,-112 789,-84.35 801.94,-75.61 826,-62 889.76,-25.94 1115.66,-22.69 1199.96,-22.77"/>
<polygon fill="black" stroke="black" points="1199.97,-26.27 1209.98,-22.8 1199.99,-19.27 1199.97,-26.27"/>
<text text-anchor="middle" x="803" y="-271.3" font-family="Times New Roman,serif" font-size="14.00">must</text>
</g>
<!-- S&#45;&gt;E -->
<g id="edge45" class="edge">
<title>S&#45;&gt;E</title>
<path fill="none" stroke="black" d="M999.96,-523.98C965.18,-523.83 904.55,-518.7 865,-488 845.37,-472.77 840,-462.85 840,-438 840,-438 840,-438 840,-112 840,-87.15 844.59,-76.16 865,-62 918.67,-24.76 1119.68,-22.1 1199.27,-22.56"/>
<polygon fill="black" stroke="black" points="1199.63,-26.06 1209.66,-22.64 1199.69,-19.07 1199.63,-26.06"/>
<text text-anchor="middle" x="848" y="-271.3" font-family="Times New Roman,serif" font-size="14.00">try</text>
</g>
<!-- S&#45;&gt;E -->
<g id="edge57" class="edge">
<title>S&#45;&gt;E</title>
<path fill="none" stroke="black" d="M1000.54,-519.88C957.97,-513.22 879,-493.41 879,-438 879,-438 879,-438 879,-112 879,-85.37 889.36,-76.02 912,-62 959.64,-32.51 1128.5,-25.29 1199.83,-23.55"/>
<polygon fill="black" stroke="black" points="1200.09,-27.04 1210.01,-23.32 1199.94,-20.04 1200.09,-27.04"/>
<text text-anchor="middle" x="891" y="-271.3" font-family="Times New Roman,serif" font-size="14.00">best</text>
</g>
<!-- S&#45;&gt;E -->
<g id="edge58" class="edge">
<title>S&#45;&gt;E</title>
<path fill="none" stroke="black" d="M1003.32,-515C973.47,-503.24 926,-478.22 926,-438 926,-438 926,-438 926,-112 926,-78.96 951.2,-76.25 981,-62 1053.65,-27.27 1150.36,-22.24 1199.85,-22.21"/>
<polygon fill="black" stroke="black" points="1199.93,-25.71 1209.95,-22.28 1199.97,-18.71 1199.93,-25.71"/>
<text text-anchor="middle" x="949" y="-271.3" font-family="Times New Roman,serif" font-size="14.00">amazing</text>
</g>
<!-- S&#45;&gt;E -->
<g id="edge59" class="edge">
<title>S&#45;&gt;E</title>
<path fill="none" stroke="black" d="M1017.05,-507.06C1007.66,-490.46 995,-463.39 995,-438 995,-438 995,-438 995,-112 995,-80.26 1018.01,-76.97 1046,-62 1095.47,-35.55 1161.27,-27.03 1199.89,-24.29"/>
<polygon fill="black" stroke="black" points="1200.26,-27.77 1210.02,-23.66 1199.83,-20.79 1200.26,-27.77"/>
<text text-anchor="middle" x="1016" y="-271.3" font-family="Times New Roman,serif" font-size="14.00">yummy</text>
</g>
<!-- S&#45;&gt;E -->
<g id="edge61" class="edge">
<title>S&#45;&gt;E</title>
<path fill="none" stroke="black" d="M1037.26,-507.1C1046.95,-490.54 1060,-463.49 1060,-438 1060,-438 1060,-438 1060,-112 1060,-49.69 1150.13,-30.96 1199.9,-25.36"/>
<polygon fill="black" stroke="black" points="1200.27,-28.84 1209.87,-24.35 1199.57,-21.87 1200.27,-28.84"/>
<text text-anchor="middle" x="1084.5" y="-271.3" font-family="Times New Roman,serif" font-size="14.00">excellent</text>
</g>
<!-- S&#45;&gt;E -->
<g id="edge63" class="edge">
<title>S&#45;&gt;E</title>
<path fill="none" stroke="black" d="M1051.09,-515.48C1082.09,-504.11 1132,-479.4 1132,-438 1132,-438 1132,-438 1132,-112 1132,-88.92 1130.97,-79.52 1146,-62 1160.05,-45.62 1182.39,-35.78 1200.78,-30.07"/>
<polygon fill="black" stroke="black" points="1201.84,-33.41 1210.51,-27.32 1199.93,-26.68 1201.84,-33.41"/>
<text text-anchor="middle" x="1146" y="-271.3" font-family="Times New Roman,serif" font-size="14.00">great</text>
</g>
<!-- S&#45;&gt;E -->
<g id="edge66" class="edge">
<title>S&#45;&gt;E</title>
<path fill="none" stroke="black" d="M1052.85,-518.63C1073.89,-513.98 1103.36,-504.9 1124,-488 1137.27,-477.13 1138.53,-471.25 1144,-455 1167.1,-386.39 1155.65,-365.2 1161,-293 1168.59,-190.52 1119.71,-151.05 1171,-62 1177.98,-49.88 1190.41,-40.93 1202.24,-34.68"/>
<polygon fill="black" stroke="black" points="1203.99,-37.73 1211.49,-30.24 1200.96,-31.42 1203.99,-37.73"/>
<text text-anchor="middle" x="1173" y="-271.3" font-family="Times New Roman,serif" font-size="14.00">love</text>
</g>
<!-- S&#45;&gt;E -->
<g id="edge67" class="edge">
<title>S&#45;&gt;E</title>
<path fill="none" stroke="black" d="M1053.87,-520.81C1079.51,-517.48 1117.97,-509.09 1144,-488 1156.98,-477.48 1156.41,-470.74 1162,-455 1170.17,-432 1167.88,-425.06 1172,-401 1180.2,-353.11 1184.48,-341.38 1189,-293 1198.56,-190.73 1157.15,-157.08 1196,-62 1198.72,-55.35 1203.12,-49.14 1207.92,-43.71"/>
<polygon fill="black" stroke="black" points="1210.62,-45.96 1215.1,-36.36 1205.61,-41.06 1210.62,-45.96"/>
<text text-anchor="middle" x="1202.5" y="-271.3" font-family="Times New Roman,serif" font-size="14.00">yum</text>
</g>
<!-- S&#45;&gt;E -->
<g id="edge69" class="edge">
<title>S&#45;&gt;E</title>
<path fill="none" stroke="black" d="M1053.99,-522.57C1083.79,-520.73 1131.67,-513.62 1163,-488 1175.62,-477.68 1173.46,-470.33 1179,-455 1204.2,-385.25 1209.73,-366.58 1219,-293 1231.84,-191.14 1206.49,-163.64 1221,-62 1221.43,-58.96 1222.04,-55.83 1222.74,-52.72"/>
<polygon fill="black" stroke="black" points="1226.14,-53.58 1225.25,-43.02 1219.36,-51.83 1226.14,-53.58"/>
<text text-anchor="middle" x="1233.5" y="-271.3" font-family="Times New Roman,serif" font-size="14.00">nice</text>
</g>
<!-- S&#45;&gt;E -->
<g id="edge74" class="edge">
<title>S&#45;&gt;E</title>
<path fill="none" stroke="black" d="M1053.99,-523.55C1087.4,-522.86 1144.47,-517.04 1182,-488 1195.05,-477.9 1192.72,-470.26 1199,-455 1233.54,-371.06 1252.29,-347.7 1249,-257 1246.36,-184.23 1239.12,-98.99 1234.99,-54.18"/>
<polygon fill="black" stroke="black" points="1238.45,-53.58 1234.03,-43.95 1231.48,-54.23 1238.45,-53.58"/>
<text text-anchor="middle" x="1277.5" y="-271.3" font-family="Times New Roman,serif" font-size="14.00">wonderful</text>
</g>
<!-- S&#45;&gt;22 -->
<g id="edge11" class="edge">
<title>S&#45;&gt;22</title>
<path fill="none" stroke="black" d="M1054.03,-521.77C1125.84,-518.25 1317.31,-507.14 1338,-488 1396.8,-433.6 1344.65,-386.29 1372,-311 1375.12,-302.4 1379.7,-301.86 1382,-293 1386.01,-277.51 1383,-272.97 1382,-257 1379.46,-216.48 1372.91,-169.87 1368.45,-141.17"/>
<polygon fill="black" stroke="black" points="1371.88,-140.43 1366.86,-131.1 1364.96,-141.53 1371.88,-140.43"/>
<text text-anchor="middle" x="1400.5" y="-325.3" font-family="Times New Roman,serif" font-size="14.00">absolutely</text>
</g>
<!-- S&#45;&gt;9 -->
<g id="edge55" class="edge">
<title>S&#45;&gt;9</title>
<path fill="none" stroke="black" d="M1054.13,-522.88C1127.19,-522.17 1326.43,-517.49 1384,-488 1395.46,-482.13 1405.28,-471.9 1412.71,-462.22"/>
<polygon fill="black" stroke="black" points="1415.64,-464.15 1418.61,-453.98 1409.95,-460.07 1415.64,-464.15"/>
<text text-anchor="middle" x="1413" y="-476.8" font-family="Times New Roman,serif" font-size="14.00">first</text>
</g>
<!-- S&#45;&gt;25 -->
<g id="edge73" class="edge">
<title>S&#45;&gt;25</title>
<path fill="none" stroke="black" d="M1054.12,-522.88C1132.94,-522.19 1360.68,-517.62 1428,-488 1496.16,-458.01 1500.84,-353.37 1498.96,-303.21"/>
<polygon fill="black" stroke="black" points="1502.45,-302.92 1498.46,-293.1 1495.46,-303.26 1502.45,-302.92"/>
<text text-anchor="middle" x="1492.5" y="-433.3" font-family="Times New Roman,serif" font-size="14.00">the</text>
</g>
<!-- S&#45;&gt;14 -->
<g id="edge56" class="edge">
<title>S&#45;&gt;14</title>
<path fill="none" stroke="black" d="M1053.96,-522.8C1150.12,-521.84 1472.51,-516.52 1508,-488 1530.77,-469.7 1537.33,-435.42 1538.96,-411.22"/>
<polygon fill="black" stroke="black" points="1542.46,-411.37 1539.4,-401.23 1535.47,-411.07 1542.46,-411.37"/>
<text text-anchor="middle" x="1529" y="-476.8" font-family="Times New Roman,serif" font-size="14.00">my</text>
</g>
<!-- S&#45;&gt;4 -->
<g id="edge8" class="edge">
<title>S&#45;&gt;4</title>
<path fill="none" stroke="black" d="M1054.04,-522.85C1154.51,-522.05 1502.63,-517.19 1542,-488 1618.91,-430.97 1630.78,-304.88 1632.14,-249.26"/>
<polygon fill="black" stroke="black" points="1635.64,-249.17 1632.29,-239.12 1628.65,-249.07 1635.64,-249.17"/>
<text text-anchor="middle" x="1630" y="-379.3" font-family="Times New Roman,serif" font-size="14.00">good</text>
</g>
<!-- S&#45;&gt;15 -->
<g id="edge23" class="edge">
<title>S&#45;&gt;15</title>
<path fill="none" stroke="black" d="M1054.14,-523.42C1156.36,-524.68 1517.75,-526.27 1625,-488 1642.37,-481.8 1659.19,-469.78 1671.87,-459.08"/>
<polygon fill="black" stroke="black" points="1674.37,-461.54 1679.58,-452.31 1669.75,-456.28 1674.37,-461.54"/>
<text text-anchor="middle" x="1661.5" y="-476.8" font-family="Times New Roman,serif" font-size="14.00">one</text>
</g>
<!-- S&#45;&gt;19 -->
<g id="edge15" class="edge">
<title>S&#45;&gt;19</title>
<path fill="none" stroke="black" d="M1054.13,-523.3C1161.57,-524.2 1557.2,-524.91 1676,-488 1726.12,-472.43 1773.25,-431.59 1799.21,-405.97"/>
<polygon fill="black" stroke="black" points="1801.7,-408.43 1806.26,-398.86 1796.73,-403.5 1801.7,-408.43"/>
<text text-anchor="middle" x="1727" y="-476.8" font-family="Times New Roman,serif" font-size="14.00">hands</text>
</g>
<!-- S&#45;&gt;13 -->
<g id="edge46" class="edge">
<title>S&#45;&gt;13</title>
<path fill="none" stroke="black" d="M1053.98,-523.23C1149.29,-523.7 1478.89,-522.58 1748,-488 1855.21,-474.23 1986,-546.09 1986,-438 1986,-438 1986,-438 1986,-220 1986,-185.13 2013.13,-153.38 2034.31,-133.91"/>
<polygon fill="black" stroke="black" points="2036.88,-136.3 2042.07,-127.06 2032.25,-131.05 2036.88,-136.3"/>
<text text-anchor="middle" x="1991" y="-325.3" font-family="Times New Roman,serif" font-size="14.00">is</text>
</g>
<!-- S&#45;&gt;11 -->
<g id="edge30" class="edge">
<title>S&#45;&gt;11</title>
<path fill="none" stroke="black" d="M1053.96,-522.62C1206.47,-520.41 1955.97,-508.51 2000,-488 2035.76,-471.34 2063.92,-434.08 2079.77,-408.99"/>
<polygon fill="black" stroke="black" points="2082.82,-410.72 2085.04,-400.36 2076.84,-407.07 2082.82,-410.72"/>
<text text-anchor="middle" x="2034.5" y="-476.8" font-family="Times New Roman,serif" font-size="14.00">cool</text>
</g>
<!-- S&#45;&gt;27 -->
<g id="edge42" class="edge">
<title>S&#45;&gt;27</title>
<path fill="none" stroke="black" d="M1053.98,-522.72C1214.56,-520.98 2039.05,-510.97 2087,-488 2098.5,-482.49 2108.13,-472.31 2115.35,-462.57"/>
<polygon fill="black" stroke="black" points="2118.28,-464.47 2121.05,-454.25 2112.51,-460.52 2118.28,-464.47"/>
<text text-anchor="middle" x="2113" y="-476.8" font-family="Times New Roman,serif" font-size="14.00">we</text>
</g>
<!-- S&#45;&gt;S -->
<g id="edge3" class="edge">
<title>S&#45;&gt;S</title>
<path fill="none" stroke="black" d="M1053.79,-526.25C1063.78,-526.32 1072,-525.57 1072,-524 1072,-523.02 1068.79,-522.36 1063.94,-522.02"/>
<polygon fill="black" stroke="black" points="1063.88,-518.52 1053.79,-521.75 1063.7,-525.51 1063.88,-518.52"/>
<text text-anchor="middle" x="1074" y="-520.3" font-family="Times New Roman,serif" font-size="14.00">i</text>
</g>
<!-- S&#45;&gt;S -->
<g id="edge24" class="edge">
<title>S&#45;&gt;S</title>
<path fill="none" stroke="black" d="M1053.54,-528.06C1071.91,-529.29 1090,-527.94 1090,-524 1090,-520.8 1078.06,-519.31 1063.73,-519.52"/>
<polygon fill="black" stroke="black" points="1063.39,-516.03 1053.54,-519.94 1063.68,-523.02 1063.39,-516.03"/>
<text text-anchor="middle" x="1109" y="-520.3" font-family="Times New Roman,serif" font-size="14.00">always</text>
</g>
<!-- S&#45;&gt;S -->
<g id="edge52" class="edge">
<title>S&#45;&gt;S</title>
<path fill="none" stroke="black" d="M1053.17,-528.96C1085.5,-532.47 1128,-530.82 1128,-524 1128,-517.87 1093.7,-515.92 1063.28,-518.13"/>
<polygon fill="black" stroke="black" points="1062.81,-514.66 1053.17,-519.04 1063.44,-521.63 1062.81,-514.66"/>
<text text-anchor="middle" x="1140.5" y="-520.3" font-family="Times New Roman,serif" font-size="14.00">very</text>
</g>
<!-- 6 -->
<g id="node32" class="node">
<title>6</title>
<ellipse fill="none" stroke="black" cx="2237" cy="-329" rx="27" ry="18"/>
<text text-anchor="middle" x="2237" y="-325.3" font-family="Times New Roman,serif" font-size="14.00">6</text>
</g>
<!-- S&#45;&gt;6 -->
<g id="edge20" class="edge">
<title>S&#45;&gt;6</title>
<path fill="none" stroke="black" d="M1054.19,-523.16C1213.44,-523.98 2021.89,-526.2 2125,-488 2182.45,-466.72 2214.86,-395.68 2228.77,-356.5"/>
<polygon fill="black" stroke="black" points="2232.16,-357.42 2232.06,-346.82 2225.53,-355.17 2232.16,-357.42"/>
<text text-anchor="middle" x="2209" y="-433.3" font-family="Times New Roman,serif" font-size="14.00">this</text>
</g>
<!-- 28&#45;&gt;29 -->
<g id="edge68" class="edge">
<title>28&#45;&gt;29</title>
<path fill="none" stroke="black" d="M2164.89,-310.88C2164.72,-283.35 2164.38,-229.01 2164.17,-195.85"/>
<polygon fill="black" stroke="black" points="2167.67,-195.46 2164.11,-185.48 2160.67,-195.51 2167.67,-195.46"/>
<text text-anchor="middle" x="2174" y="-271.3" font-family="Times New Roman,serif" font-size="14.00">this</text>
</g>
<!-- 6&#45;&gt;30 -->
<g id="edge71" class="edge">
<title>6&#45;&gt;30</title>
<path fill="none" stroke="black" d="M2236.68,-310.97C2236.37,-294.38 2235.88,-268.88 2235.52,-249.43"/>
<polygon fill="black" stroke="black" points="2239.02,-249.27 2235.33,-239.34 2232.02,-249.4 2239.02,-249.27"/>
<text text-anchor="middle" x="2241" y="-271.3" font-family="Times New Roman,serif" font-size="14.00">is</text>
</g>
<!-- 6&#45;&gt;7 -->
<g id="edge4" class="edge">
<title>6&#45;&gt;7</title>
<path fill="none" stroke="black" d="M2247.33,-312.36C2258.86,-294.9 2277.65,-266.44 2291.07,-246.13"/>
<polygon fill="black" stroke="black" points="2294.04,-247.98 2296.63,-237.7 2288.2,-244.12 2294.04,-247.98"/>
<text text-anchor="middle" x="2297" y="-271.3" font-family="Times New Roman,serif" font-size="14.00">place</text>
</g>
<!-- 20&#45;&gt;E -->
<g id="edge31" class="edge">
<title>20&#45;&gt;E</title>
<path fill="none" stroke="black" d="M1919.16,-202.58C1918.56,-176.78 1914.15,-127.93 1891,-95 1875.26,-72.61 1865.03,-70.48 1839,-62 1730.65,-26.72 1373.6,-23.21 1264.17,-22.97"/>
<polygon fill="black" stroke="black" points="1264.08,-19.47 1254.08,-22.96 1264.07,-26.47 1264.08,-19.47"/>
<text text-anchor="middle" x="1919" y="-109.3" font-family="Times New Roman,serif" font-size="14.00">best</text>
</g>
<!-- 20&#45;&gt;21 -->
<g id="edge54" class="edge">
<title>20&#45;&gt;21</title>
<path fill="none" stroke="black" d="M1925.83,-203.51C1932.33,-188.64 1942.9,-166.51 1955,-149 1958.08,-144.54 1961.69,-140.06 1965.36,-135.87"/>
<polygon fill="black" stroke="black" points="1968.18,-137.97 1972.35,-128.23 1963.02,-133.25 1968.18,-137.97"/>
<text text-anchor="middle" x="1963.5" y="-163.3" font-family="Times New Roman,serif" font-size="14.00">the</text>
</g>
</g>
</svg>
